<svg xmlns="http://www.w3.org/2000/svg" width="426" height="321.073" viewBox="0 0 426 321.073">
  <g id="Group_1" data-name="Group 1" transform="translate(-276.5 -111.927)">
    <line id="Line_2" data-name="Line 2" y2="209" transform="translate(697.5 213.5)" fill="none" stroke="#fff" stroke-width="10"/>
    <line id="Line_3" data-name="Line 3" y1="209" transform="translate(281.5 213.5)" fill="none" stroke="#fff" stroke-width="10"/>
    <line id="Line_4" data-name="Line 4" x1="109" transform="translate(281.5 218.5)" fill="none" stroke="#fff" stroke-width="10"/>
    <line id="Line_5" data-name="Line 5" x2="106" transform="translate(591.5 218.5)" fill="none" stroke="#fff" stroke-width="10"/>
    <line id="Line_6" data-name="Line 6" y1="138" x2="141" transform="translate(353.5 115.5)" fill="none" stroke="#fff" stroke-width="10"/>
    <line id="Line_7" data-name="Line 7" x2="138" y2="138" transform="translate(487.5 115.5)" fill="none" stroke="#fff" stroke-width="10"/>
    <line id="Line_8" data-name="Line 8" x2="109" transform="translate(281.5 417.5)" fill="none" stroke="#fff" stroke-width="10"/>
    <line id="Line_9" data-name="Line 9" x1="106" transform="translate(591.5 417.5)" fill="none" stroke="#fff" stroke-width="10"/>
    <line id="Line_10" data-name="Line 10" y1="107" x2="139" transform="translate(353.5 146.5)" fill="none" stroke="#fff" stroke-width="10"/>
    <line id="Line_11" data-name="Line 11" x2="139" y2="107" transform="translate(486.5 146.5)" fill="none" stroke="#fff" stroke-width="10"/>
    <g id="Component_1_1" data-name="Component 1 – 1" transform="translate(470 209)">
      <g id="Rectangle_1" data-name="Rectangle 1" fill="#f8f8f8" stroke="#fff" stroke-width="1">
        <rect width="15" height="15" stroke="none"/>
        <rect x="0.5" y="0.5" width="14" height="14" fill="none"/>
      </g>
      <g id="Rectangle_2" data-name="Rectangle 2" transform="translate(20 19)" fill="#f8f8f8" stroke="#fff" stroke-width="1">
        <rect width="15" height="15" stroke="none"/>
        <rect x="0.5" y="0.5" width="14" height="14" fill="none"/>
      </g>
      <g id="Rectangle_3" data-name="Rectangle 3" transform="translate(0 19)" fill="#f8f8f8" stroke="#fff" stroke-width="1">
        <rect width="15" height="15" stroke="none"/>
        <rect x="0.5" y="0.5" width="14" height="14" fill="none"/>
      </g>
      <g id="Rectangle_4" data-name="Rectangle 4" transform="translate(20)" fill="#f8f8f8" stroke="#fff" stroke-width="1">
        <rect width="15" height="15" stroke="none"/>
        <rect x="0.5" y="0.5" width="14" height="14" fill="none"/>
      </g>
    </g>
    <text id="HOME" transform="translate(329 375)" fill="#f8f8f8" font-size="107" font-family="HelveticaNeue, Helvetica Neue"><tspan x="0" y="0">HOME</tspan></text>
    <text id="DECOR" transform="translate(427 425)" fill="#f8f8f8" font-size="37" font-family="HelveticaNeue, Helvetica Neue"><tspan x="0" y="0">DECOR</tspan></text>
  </g>
</svg>
